# AST/ASF file generated using VICON BodyLanguage
# -----------------------------------------------
:version 1.10
:name VICON
:units
  mass 1.0
  length 0.45
  angle deg
:documentation
   .ast/.asf automatically generated from VICON data using
   VICON BodyBuilder and BodyLanguage model FoxedUp or BRILLIANT.MOD
:root
   order TX TY TZ RX RY RZ
   axis XYZ
   position 0 0 0  
   orientation 0 0 0 
:bonedata
  begin
     id 1 
     name lhipjoint
     direction 0.570549 -0.739093 0.358072 
     length 2.41801 
     axis 0 0 0  XYZ
  end
  begin
     id 2 
     name lfemur
     direction 0.34202 -0.939693 0  
     length 7.44434  
     axis 0 0 20  XYZ
    dof rx ry rz
    limits (-160.0 20.0)
           (-70.0 70.0)
           (-60.0 70.0)
  end
  begin
     id 3 
     name ltibia
     direction 0.34202 -0.939693 0   
     length 7.60047   
     axis 0 0 20   XYZ
    dof rx
    limits (-10.0 170.0)
  end
  begin
     id 4 
     name lfoot
     direction 0.0909041 -0.249757 0.964032   
     length 2.03437   
     axis -90 7.62852e-016 20   XYZ
    dof rx rz
    limits (-45.0 90.0)
           (-70.0 20.0)
  end
  begin
     id 5 
     name ltoes
     direction 1.53547e-011 -4.2174e-011 1   
     length 1.02054   
     axis -90 7.62852e-016 20   XYZ
    dof rx
    limits (-90.0 20.0)
  end
  begin
     id 6 
     name rhipjoint
     direction -0.558096 -0.746754 0.361784   
     length 2.3932  
     axis 0 0 0  XYZ 
  end
  begin
     id 7 
     name rfemur
     direction -0.34202 -0.939693 0   
     length 7.3886   
     axis 0 0 -20   XYZ
    dof rx ry rz
    limits (-160.0 20.0)
           (-70.0 70.0)
           (-70.0 60.0)
  end
  begin
     id 8 
     name rtibia
     direction -0.34202 -0.939693 0   
     length 7.4839   
     axis 0 0 -20   XYZ
    dof rx
    limits (-10.0 170.0)
 end
 begin
     id 9 
     name rfoot
     direction -0.114619 -0.314914 0.942174   
     length 2.25127  
     axis -90 -7.62852e-016 -20   XYZ
    dof rx rz
    limits (-45.0 90.0)
           (-20.0 70.0)
  end
  begin
     id 10 
     name rtoes
     direction -1.53518e-011 -4.21881e-011 1   
     length 1.11821   
     axis -90 -7.62852e-016 -20   XYZ
    dof rx
    limits (-90.0 20.0)
  end
  begin
     id 11 
     name lowerback
     direction -0.00902269 0.996426 -0.0839821   
     length 2.25052   
     axis 0 0 0   XYZ
    dof rx ry rz
    limits (-20.0 45.0)
           (-30.0 30.0)
           (-30.0 30.0)
  end
  begin
     id 12 
     name upperback
     direction 0.0370973 0.999169 -0.0168941   
     length 2.24876   
     axis 0 0 0   XYZ
    dof rx ry rz
    limits (-20.0 45.0)
           (-30.0 30.0)
           (-30.0 30.0)
  end
  begin
     id 13 
     name thorax
     direction 0.0402726 0.998931 0.0227027   
     length 2.26408   
     axis 0 0 0   XYZ
    dof rx ry rz
    limits (-20.0 45.0)
           (-30.0 30.0)
           (-30.0 30.0)
  end
  begin
     id 14 
     name lowerneck
     direction -0.0733697 0.98508 0.155675   
     length 1.58204   
     axis 0 0 0   XYZ
    dof rx ry rz
    limits (-20.0 45.0)
           (-30.0 30.0)
           (-30.0 30.0)
  end
  begin
     id 15 
     name upperneck
     direction 0.0426554 0.993501 -0.105526   
     length 1.61222   
     axis 0 0 0   XYZ
    dof rx ry rz
    limits (-20.0 45.0)
           (-30.0 30.0)
           (-30.0 30.0)
  end
  begin
     id 16
     name head
     direction 0.020792 0.998384 -0.0528868  
     length 1.61527  
     axis 0 0 0   XYZ
    dof rx ry rz
    limits (-20.0 45.0)
           (-30.0 30.0)
           (-30.0 30.0)
  end
  begin
     id 17 
     name lclavicle
     direction 0.967109 0.155462 -0.201325  
     length 3.59357  
     axis 0 0 0   XYZ
    dof ry rz
    limits (-20.0 10.0)
           (0.0 20.0)
  end
  begin
     id 18 
     name lhumerus
     direction 1 -4.48968e-011 2.38195e-027   
     length 5.38154   
     axis 180 -30 -90   XYZ
    dof rx ry rz
    limits (-60.0 90.0)
           (-90.0 90.0)
           (-90.0 90.0)
  end
  begin
     id 19
     name lradius
     direction 1 -4.48961e-011 4.85371e-027   
     length 3.33312   
     axis 180 -30 -90   XYZ
    dof rx
    limits (-10.0 170.0)
  end
  begin
     id 20
     name lwrist
     direction 1 -4.48961e-011 4.76515e-027   
     length 1.66656   
     axis -3.27502e-015 90 90   XYZ
    dof ry
    limits (-180.0 0.0)
 end
  begin
     id 21 
     name lhand
     direction 1 -4.48951e-011 9.53074e-027   
     length 0.710789   
     axis -6.08098e-015 90 90   XYZ
    dof rx rz
    limits (-90.0 90.0)
           (-45.0 45.0)
  end
  begin
     id 22 
     name lfingers
     direction 1 -4.48953e-011 1.90613e-026   
     length 0.573057   
     axis -1.21619e-014 90 90   XYZ
    dof rx
    limits (0.0 90.0)
  end
  begin
     id 23
     name lthumb
     direction 0.707107 -6.34973e-011 0.707107   
     length 0.822798   
     axis -90 45 -9.86923e-015   XYZ
    dof rx rz
    limits (-45.0 45.0)
           (-45.0 45.0)
  end
  begin
     id 24 
     name rclavicle
     direction -0.9585 0.265289 -0.104398   
     length 3.42039  
     axis 0 0 0   XYZ 
    dof ry rz
    limits (-10.0 20.0)
           (-20.0 0.0)
  end
  begin
     id 25 
     name rhumerus
     direction -1 -4.48977e-011 2.21478e-027  
     length 5.16954   
     axis 180 30 90   XYZ
    dof rx ry rz
    limits (-90.0 60.0)
           (-90.0 90.0)
           (-90.0 90.0)
  end
  begin
     id 26 
     name rradius
     direction -1 -4.48967e-011 5.63677e-027   
     length 3.38287   
     axis 180 30 90   XYZ
    dof rx
    limits (-10.0 170.0)
  end
  begin
     id 27 
     name rwrist
     direction -1 -4.48967e-011 4.76501e-027   
     length 1.69144   
     axis -3.27502e-015 -90 -90   XYZ
    dof ry
    limits (-180.0 0.0)
  end
  begin
     id 28
     name rhand
     direction -1 -4.48902e-011 9.53292e-027   
     length 0.817967   
     axis -6.08098e-015 -90 -90   XYZ
    dof rx rz
    limits (-90.0 90.0)
           (-45.0 45.0)
  end
  begin
     id 29
     name rfingers
     direction -1 -4.49012e-011 1.90561e-026   
     length 0.659466   
     axis -1.21619e-014 -90 -90   XYZ
    dof rx
    limits (0.0 90.0)
  end
  begin
     id 30
     name rthumb
     direction -0.707107 -6.34944e-011 0.707107   
     length 0.946865   
     axis -90 -45 9.86923e-015   XYZ
    dof rx rz
    limits (-45.0 45.0)
           (-45.0 45.0)
  end
:hierarchy
  begin
    root lhipjoint rhipjoint lowerback
    lhipjoint lfemur
    lfemur ltibia
    ltibia lfoot
    lfoot ltoes
    rhipjoint rfemur
    rfemur rtibia
    rtibia rfoot
    rfoot rtoes
    lowerback upperback
    upperback thorax
    thorax lowerneck lclavicle rclavicle
    lowerneck upperneck
    upperneck head
    lclavicle lhumerus
    lhumerus lradius
    lradius lwrist
    lwrist lhand lthumb
    lhand lfingers
    rclavicle rhumerus
    rhumerus rradius
    rradius rwrist
    rwrist rhand rthumb
    rhand rfingers
  end

#!OML:ASF F:\twosubjects\two\wednesday\Session 1\Justin1.ASF
:FULLY-SPECIFIED
:DEGREES
215
root 5.06917 17.4188 -12.1905 -176.575 0.417291 -180.463
lowerback 1.66632 -2.11644 -2.95981
upperback 1.05879 -2.78544 3.2159
thorax 0.459246 -1.39329 5.00761
lowerneck -17 -1.4667 -9.3155
upperneck 20.609 0.065254 3.64632
head 9.31686 -0.135121 2.84276
rclavicle 3.08116e-015 1.51076e-014
rhumerus -37.9228 -12.2781 -77.9216
rradius 25.4821
rwrist -6.83782
rhand -12.2386 19.9318
rfingers 7.12502
rthumb 13.8271 -9.58859
lclavicle 3.08116e-015 1.51076e-014
lhumerus -30.0218 6.94259 82.9693
lradius 36.4708
lwrist -6.00488
lhand -0.304914 37.1846
lfingers 7.12502
lthumb 25.2983 65.527
rfemur -23.7162 2.99411 21.1772
rtibia 24.1683
rfoot 0.350079 -0.576784
rtoes 21.0603
lfemur 4.08648 -2.05648 -20.0312
ltibia 41.0091
lfoot 11.4386 -8.87146
ltoes -6.59651
216
root 5.09699 17.443 -12.3715 -176.598 0.516366 -180.597
lowerback 1.56836 -2.06212 -3.14656
upperback 1.04804 -2.71964 3.14135
thorax 0.501109 -1.36456 5.0319
lowerneck -17.8514 -1.73108 -8.741
upperneck 21.3933 -0.16849 2.90457
head 9.76942 -0.288701 2.47625
rclavicle 4.42296e-014 1.27222e-014
rhumerus -37.6425 -11.8715 -78.2473
rradius 25.588
rwrist -7.18658
rhand -12.1574 19.1516
rfingers 7.12502
rthumb 13.9053 -10.3635
lclavicle 4.42296e-014 1.27222e-014
lhumerus -30.4544 6.67939 83.0986
lradius 36.3373
lwrist -6.09372
lhand -0.18385 37.0971
lfingers 7.12502
lthumb 25.4143 65.4231
rfemur -22.8722 3.30412 21.1789
rtibia 23.924
rfoot -0.223702 -0.772303
rtoes 20.7121
lfemur 2.77228 -2.06987 -19.995
ltibia 43.4401
lfoot 13.5613 -9.03423
ltoes -2.28914
217
root 5.12056 17.4677 -12.5429 -176.68 0.473165 -180.239
lowerback 1.63448 -2.07604 -2.78568
upperback 1.06154 -2.72789 3.19504
thorax 0.464034 -1.36291 4.88556
lowerneck -18.1427 -1.76917 -8.47395
upperneck 21.6817 -0.217883 2.73421
head 9.92872 -0.312154 2.37136
rclavicle -7.45443e-015 1.43125e-014
rhumerus -37.3946 -11.5505 -78.5689
rradius 25.9354
rwrist -7.35368
rhand -12.0554 18.4142
rfingers 7.12502
rthumb 14.0037 -11.0941
lclavicle -7.45443e-015 1.43125e-014
lhumerus -30.9056 6.43807 83.165
lradius 36.3044
lwrist -6.11461
lhand 0.194513 37.3136
lfingers 7.12502
lthumb 25.7767 65.5875
rfemur -21.9601 3.54212 21.6956
rtibia 23.695
rfoot -0.805257 -1.12603
rtoes 21.8208
lfemur 1.40787 -2.03665 -19.3688
ltibia 45.9152
lfoot 15.4891 -9.4379
ltoes 0.415386
218
root 5.14151 17.4874 -12.7091 -176.686 0.450406 -179.207
lowerback 1.59305 -2.06761 -1.67664
upperback 1.14588 -2.67624 3.44305
thorax 0.52798 -1.32087 4.51189
lowerneck -18.0836 -1.68408 -8.67526
upperneck 21.4643 -0.162696 3.12268
head 9.8349 -0.259532 2.54495
rclavicle 9.0447e-015 3.26007e-014
rhumerus -37.1832 -11.0371 -78.9755
rradius 26.6678
rwrist -7.99332
rhand -11.99 18.6174
rfingers 7.12502
rthumb 14.0666 -10.8866
lclavicle 9.0447e-015 3.26007e-014
lhumerus -31.0541 6.10014 83.3567
lradius 36.1231
lwrist -5.95636
lhand 0.0737287 37.4066
lfingers 7.12502
lthumb 25.661 65.6972
rfemur -21.1738 3.73615 22.9656
rtibia 23.5901
rfoot -1.33237 -1.30386
rtoes 21.6967
lfemur -0.0652331 -1.6958 -17.9238
ltibia 48.3822
lfoot 17.0567 -10.1501
ltoes 2.16892
219
root 5.16571 17.4917 -12.8779 -176.773 0.462673 -178.76
lowerback 1.5396 -2.02169 -1.22286
upperback 1.20618 -2.59699 3.56014
thorax 0.597325 -1.27389 4.37334
lowerneck -17.6593 -1.64425 -9.20069
upperneck 21.149 -0.163231 3.75506
head 9.64343 -0.226819 2.84716
rclavicle -3.18055e-014 7.95139e-016
rhumerus -37.0598 -10.607 -79.224
rradius 27.28
rwrist -8.71774
rhand -11.8754 19.4134
rfingers 7.12502
rthumb 14.1771 -10.0829
lclavicle -3.18055e-014 7.95139e-016
lhumerus -31.2997 5.76741 83.6645
lradius 35.907
lwrist -5.91624
lhand -0.303478 37.1648
lfingers 7.12502
lthumb 25.2997 65.507
rfemur -20.4302 3.72955 23.6267
rtibia 23.7067
rfoot -1.94775 -1.1487
rtoes 20.1411
lfemur -1.39557 -1.44321 -17.2301
ltibia 50.8402
lfoot 17.6231 -10.7326
ltoes 2.60579
220
root 5.18601 17.4847 -13.0467 -177.113 0.398649 -178.71
lowerback 1.94096 -1.99305 -1.0512
upperback 1.162 -2.5547 3.44611
thorax 0.310171 -1.24751 4.17372
lowerneck -16.7327 -1.57936 -9.43566
upperneck 20.6537 -0.164491 4.02665
head 9.29824 -0.207136 2.96669
rclavicle 1.49089e-015 1.19271e-014
rhumerus -37.1219 -10.2147 -79.5649
rradius 27.6954
rwrist -9.18137
rhand -12.175 19.2719
rfingers 7.12502
rthumb 13.8884 -10.2443
lclavicle 1.49089e-015 1.19271e-014
lhumerus -31.9829 5.35025 83.7416
lradius 35.9674
lwrist -5.99428
lhand -0.192057 36.703
lfingers 7.12502
lthumb 25.4064 65.0301
rfemur -19.6946 3.50446 23.8221
rtibia 24.2818
rfoot -2.90035 -0.942122
rtoes 20.7988
lfemur -2.46114 -1.6063 -17.1488
ltibia 53.3216
lfoot 17.2774 -10.4578
ltoes 2.0716
221
root 5.19489 17.4701 -13.2151 -177.381 0.252552 -178.664
lowerback 2.2604 -2.0066 -0.773154
upperback 1.10882 -2.56731 3.3015
thorax 0.0581126 -1.24945 3.88041
lowerneck -17.0553 -1.60497 -9.17483
upperneck 21.0675 -0.210271 3.9731
head 9.50479 -0.214842 2.91003
rclavicle 4.17448e-015 -7.95139e-015
rhumerus -37.2007 -9.67292 -80.0089
rradius 28.2867
rwrist -9.5456
rhand -12.6233 18.7093
rfingers 7.12502
rthumb 13.4563 -10.836
lclavicle 4.17448e-015 -7.95139e-015
lhumerus -32.6089 4.91267 83.7135
lradius 36.0797
lwrist -6.05844
lhand 0.390455 36.3447
lfingers 7.12502
lthumb 25.9643 64.5912
rfemur -18.9104 2.97082 23.9793
rtibia 24.592
rfoot -3.73487 -0.523501
rtoes 21.9433
lfemur -3.6117 -1.99152 -17.1848
ltibia 55.7031
lfoot 16.2825 -9.88089
ltoes 1.57639
222
root 5.20923 17.4297 -13.3791 -177.409 0.0545215 -178.566
lowerback 1.8661 -2.00214 -0.713148
upperback 1.33132 -2.56108 3.36235
thorax 0.507061 -1.24985 3.88976
lowerneck -17.3377 -1.73748 -9.91793
upperneck 21.1015 -0.417162 4.97741
head 9.58446 -0.262018 3.36281
rclavicle 4.47266e-014 1.43125e-014
rhumerus -36.7685 -9.44305 -80.1484
rradius 28.8424
rwrist -9.67069
rhand -12.9178 19.076
rfingers 7.12502
rthumb 13.1724 -10.4879
lclavicle 4.47266e-014 1.43125e-014
lhumerus -32.5903 4.78625 83.9982
lradius 35.922
lwrist -6.21201
lhand 0.765557 36.1244
lfingers 7.12502
lthumb 26.3234 64.3178
rfemur -18.2952 2.38592 24.2116
rtibia 24.5948
rfoot -4.34549 -0.0937438
rtoes 21.8319
lfemur -5.04514 -2.3548 -17.117
ltibia 57.9275
lfoot 14.7853 -9.42549
ltoes 1.10564
223
root 5.24232 17.4718 -13.5135 -177.056 0.656432 -177.461
lowerback 1.69485 -1.70747 0.150371
upperback 1.38403 -2.12524 3.73632
thorax 0.607119 -1.01203 3.78007
lowerneck -17.9183 -1.96286 -9.22896
upperneck 21.4531 -0.570692 3.79567
head 9.82994 -0.415114 2.81951
rclavicle 1.19271e-015 3.57812e-014
rhumerus -36.2077 -9.27567 -80.2504
rradius 29.1512
rwrist -9.90299
rhand -12.5838 19.9906
rfingers 7.12502
rthumb 13.4944 -9.55225
lclavicle 1.19271e-015 3.57812e-014
lhumerus -32.5232 4.79843 84.3571
lradius 35.6922
lwrist -6.42394
lhand 0.424559 35.7672
lfingers 7.12502
lthumb 25.997 64.0088
rfemur -17.9711 3.59075 25.5623
rtibia 24.1591
rfoot -4.53424 -0.654878
rtoes 21.1386
lfemur -6.9666 -1.10999 -15.4161
ltibia 59.848
lfoot 13.4337 -9.35599
ltoes 0.118613
224
root 5.26417 17.5347 -13.6643 -177.046 0.900966 -176.7
lowerback 2.03139 -1.58575 0.980299
upperback 1.305 -1.91543 3.87016
thorax 0.299882 -0.888857 3.45985
lowerneck -17.7668 -2.05903 -9.14093
upperneck 21.3055 -0.679977 3.52235
head 9.75779 -0.48889 2.68979
rclavicle 7.65321e-015 -3.89618e-014
rhumerus -36.0036 -8.65374 -80.6321
rradius 29.5906
rwrist -10.5879
rhand -12.6285 20.4085
rfingers 7.12502
rthumb 13.4513 -9.13715
lclavicle 7.65321e-015 -3.89618e-014
lhumerus -32.8708 4.87664 84.4561
lradius 35.5495
lwrist -6.90935
lhand 0.0767032 35.7026
lfingers 7.12502
lthumb 25.6638 63.9928
rfemur -17.0932 3.91568 26.5534
rtibia 23.458
rfoot -4.46789 -0.800108
rtoes 19.721
lfemur -8.21873 -0.176411 -14.1795
ltibia 61.3945
lfoot 11.6647 -9.2886
ltoes -1.37452
225
root 5.28116 17.5404 -13.81 -176.995 1.0491 -176.354
lowerback 2.1986 -1.51252 1.3788
upperback 1.20141 -1.79546 3.87455
thorax 0.0807426 -0.823049 3.24418
lowerneck -17.6208 -2.11163 -9.93999
upperneck 21.1298 -0.859723 4.76025
head 9.68579 -0.497724 3.23246
rclavicle -5.46658e-015 4.37326e-014
rhumerus -35.901 -8.13847 -80.9822
rradius 30.084
rwrist -11.0995
rhand -13.1606 20.4811
rfingers 7.12502
rthumb 12.9384 -9.09779
lclavicle -5.46658e-015 4.37326e-014
lhumerus -33.3149 5.00082 84.4069
lradius 35.4634
lwrist -7.34374
lhand 0.152106 35.6737
lfingers 7.12502
lthumb 25.7361 63.9534
rfemur -15.6894 3.80866 27.0572
rtibia 22.098
rfoot -4.43582 -0.544971
rtoes 20.1533
lfemur -9.45878 0.283874 -13.5695
ltibia 62.8634
lfoot 9.12719 -9.42721
ltoes -2.61458
